<svg width="15" height="16" viewBox="0 0 15 16" xmlns="http://www.w3.org/2000/svg">
<path fill-rule="evenodd" clip-rule="evenodd" d="M1.91224 7.2609C1.92304 4.46129 4.20133 2.20003 7.00095 2.21025C9.80057 2.22048 12.0614 4.4983 12.0506 7.29792C12.0453 8.66368 11.5004 9.90132 10.6186 10.8096C10.5938 10.8286 10.5699 10.8494 10.5471 10.872C10.5243 10.8946 10.5034 10.9183 10.4842 10.943C9.56933 11.818 8.32762 12.3536 6.96185 12.3486C4.16223 12.3383 1.90144 10.0605 1.91224 7.2609ZM11.0299 12.3865C9.91149 13.2744 8.49513 13.8025 6.95627 13.7969C3.35676 13.7838 0.450027 10.8551 0.463909 7.25562C0.477791 3.65611 3.40703 0.748782 7.00654 0.761924C10.6061 0.775065 13.5128 3.7037 13.4989 7.30321C13.493 8.84206 12.9542 10.2544 12.058 11.3661L14.7092 14.0373C14.9909 14.3211 14.9891 14.7797 14.7052 15.0614C14.4213 15.3432 13.9628 15.3415 13.6811 15.0577L11.0299 12.3865Z" fill="#747474"/>
</svg>
