<svg width="13" height="12" viewBox="0 0 13 12" fill="none" xmlns="http://www.w3.org/2000/svg">
<path d="M6.97553 0.845491C6.90859 0.63948 6.71661 0.5 6.5 0.5C6.28339 0.5 6.09141 0.63948 6.02447 0.845491L4.9019 4.30041H1.26919C1.05258 4.30041 0.860598 4.43989 0.793661 4.6459C0.726724 4.85191 0.800053 5.07759 0.975297 5.20492L3.91422 7.34017L2.79165 10.7951C2.72472 11.0011 2.79804 11.2268 2.97329 11.3541C3.14853 11.4814 3.38583 11.4814 3.56107 11.3541L6.5 9.21885L9.43893 11.3541C9.61417 11.4814 9.85147 11.4814 10.0267 11.3541C10.202 11.2268 10.2753 11.0011 10.2083 10.7951L9.08578 7.34017L12.0247 5.20492C12.1999 5.07759 12.2733 4.85191 12.2063 4.6459C12.1394 4.43989 11.9474 4.30041 11.7308 4.30041H8.0981L6.97553 0.845491Z" fill="#CA744C" stroke="#CA744C" stroke-linecap="round" stroke-linejoin="round"/>
</svg>
